# xmcd
#
# Track frame offsets: 
#        150
#        4427
#        23932
#        40209
#        63762
#        78507
#        96600
#        116285
#        138094
#        155491
#        167236
#
# Disc length: 2387 seconds
#
# Revision: 1
# Processed by: cddbd v1.5.2PL0 Copyright (c) Steve Scherf et al.
# Submitted via: ExactAudioCopyFreeDBPlugin 1.0
#
DISCID=8a09510b
DTITLE=Harlem Slim - King Of The Delta Bluesmen
DYEAR=2002
DGENRE=Blues
TTITLE0=The Organ Grinders Monkey
TTITLE1=Kind Hearted Woman
TTITLE2=Poor Boy
TTITLE3=Walking Blues
TTITLE4=Dehlia
TTITLE5=Sweet Home Chicago
TTITLE6=Dyin' Crapshooter's Blues
TTITLE7=Me and The Devil Blues
TTITLE8=Just As Well Get Ready, You Got To Die
TTITLE9=Cross Road Blues
TTITLE10=T'aint Long Before Day
EXTD=
EXTT0=
EXTT1=
EXTT2=
EXTT3=
EXTT4=
EXTT5=
EXTT6=
EXTT7=
EXTT8=
EXTT9=
EXTT10=
PLAYORDER=
